<?xml version="1.0" standalone="no"?>
<!DOCTYPE svg PUBLIC "-//W3C//DTD SVG 20010904//EN"
 "http://www.w3.org/TR/2001/REC-SVG-20010904/DTD/svg10.dtd">
<svg version="1.0" xmlns="http://www.w3.org/2000/svg"
 width="1024.000000pt" height="1024.000000pt" viewBox="0 0 1024.000000 1024.000000"
 preserveAspectRatio="xMidYMid meet">

<g transform="translate(0.000000,1024.000000) scale(0.100000,-0.100000)"
fill="#000000" stroke="none">
<path d="M6585 6036 c-95 -23 -155 -68 -191 -142 -23 -47 -26 -63 -23 -132 7
-135 56 -185 254 -254 122 -44 165 -75 165 -121 0 -67 -51 -101 -150 -100 -72
1 -135 20 -193 59 -22 14 -40 24 -42 22 -13 -14 -65 -155 -61 -165 10 -24 148
-82 225 -94 172 -26 333 37 393 154 25 51 34 147 19 205 -13 47 -64 110 -116
142 -18 11 -84 39 -147 61 -62 22 -123 50 -135 61 -32 30 -30 73 5 108 52 51
157 49 265 -6 27 -13 50 -24 52 -24 3 0 55 145 55 155 0 3 -28 19 -63 35 -104
49 -210 61 -312 36z"/>
<path d="M7382 6034 c-68 -18 -99 -35 -140 -75 -57 -56 -67 -84 -67 -184 0
-77 3 -95 23 -128 34 -53 100 -95 220 -137 124 -44 172 -77 172 -121 0 -67
-50 -102 -145 -102 -72 0 -123 15 -188 55 -26 17 -49 29 -51 27 -2 -2 -18 -40
-36 -83 -38 -90 -40 -84 54 -133 161 -82 378 -62 487 47 102 102 105 271 7
367 -51 49 -71 59 -208 108 -58 20 -115 46 -127 58 -34 31 -31 79 7 111 56 46
155 43 264 -9 37 -18 52 -21 58 -12 17 27 49 137 42 148 -11 18 -106 57 -169
68 -77 14 -138 13 -203 -5z"/>
<path d="M1442 5692 l3 -337 33 -67 c51 -104 129 -157 261 -180 54 -9 84 -9
136 1 171 31 271 136 281 295 2 39 6 196 7 349 l2 277 -92 0 -93 0 0 -288 c0
-318 -7 -366 -57 -414 -56 -54 -157 -61 -224 -15 -63 42 -64 49 -67 400 l-3
317 -95 0 -95 0 3 -338z"/>
<path d="M2370 5576 l0 -456 95 0 95 0 0 165 0 166 56 -3 56 -3 85 -162 85
-163 104 0 c57 0 104 3 104 8 0 4 -42 84 -94 177 l-93 170 31 19 c83 49 124
114 133 209 9 99 -16 169 -82 234 -78 76 -114 85 -367 90 l-208 5 0 -456z
m387 265 c66 -31 87 -87 58 -157 -20 -48 -63 -64 -170 -64 l-85 0 0 120 0 120
78 0 c54 0 89 -6 119 -19z"/>
<path d="M3220 5575 l0 -455 168 0 c252 0 356 22 425 88 88 84 101 241 27 326
-17 18 -45 39 -62 46 -18 8 -34 14 -36 15 -1 1 18 22 42 46 100 100 80 265
-41 336 -70 41 -147 53 -345 53 l-178 0 0 -455z m407 253 c37 -37 37 -89 0
-126 -25 -24 -36 -27 -118 -32 -50 -3 -93 -3 -95 -1 -2 2 -4 47 -4 99 l0 94
95 -4 c87 -3 97 -5 122 -30z m8 -343 c53 -26 72 -96 39 -144 -26 -37 -74 -51
-174 -51 l-90 0 0 105 0 105 96 0 c66 0 106 -5 129 -15z"/>
<path d="M4151 5622 c-79 -224 -152 -428 -162 -454 l-19 -48 104 0 104 0 26
88 c15 48 30 95 32 105 5 16 20 17 166 15 l161 -3 31 -102 30 -103 103 0 c57
0 103 1 103 3 0 1 -43 126 -96 277 -53 151 -124 355 -157 452 l-62 178 -110 0
-110 0 -144 -408z m313 27 c25 -81 46 -150 46 -153 0 -4 -47 -6 -105 -5 -81 1
-105 5 -105 15 0 7 18 68 40 136 22 67 45 140 51 162 11 39 12 40 19 16 5 -14
29 -91 54 -171z"/>
<path d="M4970 5575 l0 -455 90 0 90 0 0 323 1 322 32 -53 c18 -29 107 -173
198 -320 l166 -267 96 -3 97 -3 0 456 0 455 -91 0 -91 0 4 -315 c2 -173 3
-315 2 -315 -1 0 -18 33 -39 73 -35 67 -123 212 -276 455 l-64 102 -107 0
-108 0 0 -455z"/>
<path d="M5960 5575 l0 -455 95 0 95 0 0 455 0 455 -95 0 -95 0 0 -455z"/>
<path d="M8000 5575 l0 -455 285 0 285 0 0 85 0 85 -190 0 -190 0 0 100 0 100
165 0 165 0 0 85 0 85 -165 0 -165 0 0 100 0 100 190 0 190 0 0 85 0 85 -285
0 -285 0 0 -455z"/>
<path d="M2528 4661 c-42 -14 -84 -48 -109 -88 -32 -51 -32 -145 0 -197 38
-60 85 -86 159 -86 66 0 92 9 130 43 l22 21 -22 23 c-26 28 -33 28 -65 3 -39
-31 -98 -27 -133 9 -52 52 -52 126 1 177 39 38 105 41 141 7 l24 -23 28 29 28
29 -39 26 c-44 29 -120 41 -165 27z"/>
<path d="M3285 4651 c-138 -64 -154 -248 -28 -335 71 -49 181 -37 240 26 70
75 69 202 -2 271 -58 56 -139 71 -210 38z m125 -66 c36 -19 60 -62 60 -110 0
-70 -42 -114 -108 -115 -37 0 -50 6 -78 34 -28 28 -34 42 -34 75 0 100 80 157
160 116z"/>
<path d="M5258 4660 c-145 -44 -175 -257 -49 -345 33 -22 50 -26 104 -26 65 0
95 9 130 39 13 12 17 31 17 94 l0 78 -70 0 -70 0 0 -30 c0 -28 3 -30 36 -30
34 0 35 -1 32 -32 -3 -28 -9 -35 -41 -45 -94 -31 -180 75 -133 165 35 69 99
88 165 51 l41 -23 23 23 22 22 -28 24 c-44 39 -118 54 -179 35z"/>
<path d="M5895 4656 c-49 -21 -70 -53 -70 -102 0 -57 23 -80 111 -108 59 -19
69 -26 72 -48 2 -20 -3 -28 -28 -38 -27 -11 -36 -10 -82 13 l-51 25 -18 -21
c-25 -29 -24 -32 13 -59 38 -27 151 -38 187 -18 31 16 61 69 61 107 0 49 -35
82 -115 108 -72 23 -89 41 -65 70 17 21 69 18 107 -5 l32 -19 20 26 c25 31 21
40 -33 64 -48 22 -99 24 -141 5z"/>
<path d="M6671 4648 c-25 -13 -58 -40 -74 -60 -68 -85 -35 -232 64 -283 36
-19 142 -19 177 -1 90 47 127 167 81 264 -28 56 -78 90 -149 97 -46 5 -63 2
-99 -17z m129 -63 c41 -21 60 -53 60 -103 0 -78 -38 -121 -108 -122 -37 0 -50
6 -78 34 -29 29 -34 41 -34 80 0 96 81 152 160 111z"/>
<path d="M2857 4478 l1 -183 111 -3 111 -3 0 36 0 35 -75 0 -75 0 0 150 0 150
-37 0 -38 0 2 -182z"/>
<path d="M3620 4625 l0 -35 55 0 55 0 0 -150 0 -150 40 0 40 0 -2 48 c0 26 0
93 1 150 l1 102 55 0 55 0 0 35 0 35 -150 0 -150 0 0 -35z"/>
<path d="M4030 4475 l0 -185 35 0 35 0 0 75 0 75 80 0 80 0 0 -75 0 -75 35 0
35 0 0 185 0 185 -35 0 -35 0 0 -75 0 -75 -80 0 -80 0 0 75 0 75 -35 0 -35 0
0 -185z"/>
<path d="M4480 4475 l0 -185 35 0 35 0 0 185 0 185 -35 0 -35 0 0 -185z"/>
<path d="M4700 4475 l0 -185 35 0 35 0 0 123 c1 99 3 119 13 105 168 -237 160
-227 198 -228 l36 0 1 185 1 185 -39 0 -40 0 0 -117 c-1 -95 -3 -115 -13 -102
-7 9 -45 62 -86 118 -68 94 -76 101 -107 101 l-34 0 0 -185z"/>
<path d="M6190 4625 l0 -35 55 0 55 0 0 -150 0 -150 35 0 35 0 0 150 0 150 55
0 55 0 0 35 0 35 -145 0 -145 0 0 -35z"/>
<path d="M7058 4476 l3 -186 34 0 35 0 0 63 c0 35 2 66 5 69 3 2 18 3 33 0 24
-3 35 -16 63 -68 34 -63 34 -64 77 -64 23 0 42 3 42 6 0 4 -16 32 -35 64 -19
32 -35 60 -35 63 0 3 14 19 30 35 25 26 30 38 30 81 0 42 -5 56 -29 83 l-29
33 -114 3 -113 4 3 -186z m190 108 c12 -8 22 -26 22 -39 0 -39 -25 -55 -86
-55 l-54 0 0 55 0 55 48 0 c27 0 57 -7 70 -16z"/>
<path d="M7460 4475 l0 -185 130 0 130 0 0 35 0 34 -92 3 -93 3 1 40 1 40 79
0 79 0 3 33 3 32 -86 0 c-75 0 -86 2 -81 16 3 9 6 29 6 45 l0 29 90 0 90 0 0
30 0 30 -130 0 -130 0 0 -185z"/>
</g>
</svg>
